HIERARCHY
ROOT joint_0
{
	OFFSET 0.000000 0.000000 0.000000
	CHANNELS 6 Xposition Yposition Zposition Zrotation Yrotation Xrotation 
	JOINT joint_1
	{
		OFFSET 11.612000 -0.419000 106.198000
		CHANNELS 3 Zrotation Yrotation Xrotation
		JOINT joint_2
		{
			OFFSET -1.708000 -1.022000 97.564090
			CHANNELS 3 Zrotation Yrotation Xrotation
			JOINT joint_3
			{
				OFFSET -4.121000 -1.538000 97.375000
				CHANNELS 3 Zrotation Yrotation Xrotation
				JOINT joint_4
				{
					OFFSET 5.442000 -2.123000 132.795900
					CHANNELS 3 Zrotation Yrotation Xrotation
					JOINT joint_5
					{
						OFFSET 21.935000 0.195000 82.975100
						CHANNELS 3 Zrotation Yrotation Xrotation
						End Site
						{
							OFFSET 0.000000 0.000000 0.000000
						}
					}
				}
				JOINT joint_6
				{
					OFFSET 4.262000 -30.048000 73.899900
					CHANNELS 3 Zrotation Yrotation Xrotation
					JOINT joint_7
					{
						OFFSET 9.731000 -136.810010 -21.963010
						CHANNELS 3 Zrotation Yrotation Xrotation
						JOINT joint_8
						{
							OFFSET 33.360000 -35.709000 -267.597900
							CHANNELS 3 Zrotation Yrotation Xrotation
							JOINT joint_9
							{
								OFFSET 36.156000 -29.759000 -240.558040
								CHANNELS 3 Zrotation Yrotation Xrotation
								End Site
								{
									OFFSET 0.000000 0.000000 0.000000
								}
							}
						}
					}
				}
				JOINT joint_10
				{
					OFFSET 2.027000 27.734000 74.914920
					CHANNELS 3 Zrotation Yrotation Xrotation
					JOINT joint_11
					{
						OFFSET -5.183000 136.784000 -23.604980
						CHANNELS 3 Zrotation Yrotation Xrotation
						JOINT joint_12
						{
							OFFSET 29.806000 37.229000 -267.809940
							CHANNELS 3 Zrotation Yrotation Xrotation
							JOINT joint_13
							{
								OFFSET 36.890000 46.524990 -237.772030
								CHANNELS 3 Zrotation Yrotation Xrotation
								End Site
								{
									OFFSET 0.000000 0.000000 0.000000
								}
							}
						}
					}
				}
			}
		}
	}
	JOINT joint_14
	{
		OFFSET -7.290000 -102.873990 -124.314940
		CHANNELS 3 Zrotation Yrotation Xrotation
		JOINT joint_15
		{
			OFFSET -15.466000 -19.909010 -438.533020
			CHANNELS 3 Zrotation Yrotation Xrotation
			JOINT joint_16
			{
				OFFSET -26.899000 -18.922000 -464.797000
				CHANNELS 3 Zrotation Yrotation Xrotation
				JOINT joint_17
				{
					OFFSET 179.329000 -12.011000 -84.174000
					CHANNELS 3 Zrotation Yrotation Xrotation
					End Site
					{
						OFFSET 0.000000 0.000000 0.000000
					}
				}
			}
		}
	}
	JOINT joint_18
	{
		OFFSET -6.225000 101.546000 -125.479980
		CHANNELS 3 Zrotation Yrotation Xrotation
		JOINT joint_19
		{
			OFFSET -13.973000 7.996000 -438.963010
			CHANNELS 3 Zrotation Yrotation Xrotation
			JOINT joint_20
			{
				OFFSET -44.294000 5.716000 -463.813970
				CHANNELS 3 Zrotation Yrotation Xrotation
				JOINT joint_21
				{
					OFFSET 178.505000 -4.689000 -85.139000
					CHANNELS 3 Zrotation Yrotation Xrotation
					End Site
					{
						OFFSET 0.000000 0.000000 0.000000
					}
				}
			}
		}
	}
}
MOTION
Frames: 13
Frame Time: 0.016667
-2762.011230 856.888367 1127.306030 -12.269825 0.630556 -1.888955 0.428941 14.649731 2.622683 -2.149804 -2.461341 -0.523838 -2.589636 2.349131 0.383770 -1.717580 3.189802 5.935749 0.000000 0.000000 0.000000 -5.294881 -41.322572 1.548468 8.685476 -10.123969 6.872827 13.927527 -70.336433 6.416451 0.000000 0.000000 0.000000 2.311781 -23.065088 7.867140 0.293654 -18.641282 -1.903192 -14.563353 -82.356175 -3.353459 0.000000 0.000000 0.000000 -0.503410 -16.649611 -6.221775 -3.286792 35.601695 5.487914 -7.387319 -1.919682 -3.192948 0.000000 0.000000 0.000000 4.026780 -3.472514 -0.285820 4.503118 21.425229 3.730775 4.091948 -7.686123 1.608335 0.000000 0.000000 0.000000 
-2755.095947 852.922607 1131.353027 -11.642100 1.116687 -1.795668 0.074839 14.590716 2.537939 -2.188010 -2.464096 -0.509252 -2.529639 2.340533 0.396162 -1.740067 3.089928 5.965371 0.000000 0.000000 0.000000 -5.224507 -40.506390 1.439083 8.500873 -10.776005 6.761141 14.202216 -69.700734 5.409542 0.000000 0.000000 0.000000 2.257548 -23.404750 7.829401 0.801909 -18.090802 -2.185966 -13.832246 -82.129791 -5.576254 0.000000 0.000000 0.000000 -1.907975 -17.496687 -5.210699 -4.753936 30.760851 3.277322 -8.172157 -1.979180 -3.623476 0.000000 0.000000 0.000000 3.815038 -3.142279 -0.098694 4.220766 20.215284 3.473987 3.834664 -6.213316 1.541122 0.000000 0.000000 0.000000 
-2747.870117 848.482544 1134.792969 -10.957954 1.570135 -1.640677 -0.253322 14.547318 2.396514 -2.256729 -2.475928 -0.471315 -2.510625 2.326231 0.405490 -1.758681 3.007901 5.999490 0.000000 0.000000 0.000000 -5.158120 -39.590839 1.286981 8.166641 -11.399123 6.675201 14.420423 -69.202419 4.733860 0.000000 0.000000 0.000000 2.206560 -23.604731 7.782242 1.282672 -17.534369 -2.462029 -13.188363 -81.972007 -7.647892 0.000000 0.000000 0.000000 -3.125437 -18.052896 -4.272727 -5.954432 25.603109 1.489094 -8.457230 -1.483433 -3.795453 0.000000 0.000000 0.000000 3.575378 -2.807735 0.052330 3.927724 19.113674 3.240098 3.577642 -4.843310 1.468207 0.000000 0.000000 0.000000 
-2740.152344 843.702881 1137.441040 -10.291552 1.978527 -1.438502 -0.524692 14.488688 2.255665 -2.331670 -2.467960 -0.442396 -2.502308 2.318689 0.399835 -1.769875 2.942372 6.025417 0.000000 0.000000 0.000000 -5.025653 -38.481165 0.997354 7.687845 -11.988869 6.639469 14.593508 -68.939965 4.323475 0.000000 0.000000 0.000000 2.184898 -23.657191 7.700918 1.563864 -16.973228 -2.789299 -12.753415 -81.735818 -9.159488 0.000000 0.000000 0.000000 -3.830940 -18.343620 -3.564706 -6.539063 20.387347 0.388805 -8.036693 -0.442252 -3.597293 0.000000 0.000000 0.000000 3.314073 -2.406433 0.184551 3.626116 18.084892 3.006016 3.314338 -3.679016 1.384374 0.000000 0.000000 0.000000 
-2732.055908 838.489563 1139.432983 -9.627991 2.372789 -1.203958 -0.748152 14.398252 2.113443 -2.413310 -2.443357 -0.421242 -2.512448 2.316131 0.384128 -1.779473 2.892502 6.056680 0.000000 0.000000 0.000000 -4.875187 -37.218966 0.633298 7.090379 -12.524663 6.629217 14.719117 -68.875060 4.178143 0.000000 0.000000 0.000000 2.174811 -23.531773 7.591316 1.774081 -16.424095 -3.140566 -12.441380 -81.490346 -10.406077 0.000000 0.000000 0.000000 -4.151238 -18.393263 -2.983212 -6.619040 14.939123 -0.395361 -7.289197 1.143003 -3.184276 0.000000 0.000000 0.000000 3.033677 -2.003729 0.318257 3.316994 17.154332 2.775979 3.045487 -2.673256 1.291646 0.000000 0.000000 0.000000 
-2723.515381 832.964172 1140.541992 -8.878741 2.626708 -0.862910 -0.939994 14.404834 1.871424 -2.532948 -2.462469 -0.347738 -2.596675 2.316151 0.365570 -1.781463 2.869178 6.055475 0.000000 0.000000 0.000000 -4.792452 -36.126261 0.347356 6.551367 -12.916399 6.604485 14.796425 -68.900988 4.214710 0.000000 0.000000 0.000000 2.160617 -23.274265 7.439263 1.857356 -15.998158 -3.434200 -12.325493 -81.314480 -11.082517 0.000000 0.000000 0.000000 -4.122594 -18.200563 -2.705230 -6.260131 9.917658 -0.895096 -6.484990 2.737402 -2.715440 0.000000 0.000000 0.000000 2.742941 -1.453815 0.340839 2.996877 16.311200 2.609824 2.779458 -1.843808 1.193439 0.000000 0.000000 0.000000 
-2714.453857 827.206360 1140.579956 -8.088551 2.738237 -0.455452 -1.105783 14.437065 1.590649 -2.670832 -2.500090 -0.252033 -2.726172 2.327601 0.342945 -1.769298 2.888197 5.991194 0.000000 0.000000 0.000000 -4.842384 -35.382553 0.237236 6.170232 -13.146922 6.544775 14.840673 -68.944824 4.400644 0.000000 0.000000 0.000000 2.139561 -22.947831 7.238156 1.682931 -15.707812 -3.633105 -12.477782 -81.303391 -10.812734 0.000000 0.000000 0.000000 -3.757019 -17.913741 -2.729257 -5.539489 5.838557 -1.144598 -5.614351 3.257534 -2.274817 0.000000 0.000000 0.000000 2.488105 -0.725244 0.278307 2.704760 15.521797 2.515159 2.554240 -1.254667 1.105815 0.000000 0.000000 0.000000 
-2704.898926 821.165955 1139.636963 -7.357278 2.793312 -0.066683 -1.231932 14.373759 1.388133 -2.785042 -2.504498 -0.200912 -2.837974 2.358057 0.310119 -1.746623 2.948809 5.883096 0.000000 0.000000 0.000000 -4.991364 -34.845243 0.241423 5.877673 -13.268352 6.459172 14.863474 -69.050273 4.763406 0.000000 0.000000 0.000000 2.117100 -22.571107 6.995059 1.279406 -15.475921 -3.774951 -12.828143 -81.437181 -9.773206 0.000000 0.000000 0.000000 -3.046524 -17.587433 -2.887365 -4.464339 2.412711 -1.336361 -4.553593 2.673921 -1.823373 0.000000 0.000000 0.000000 2.289864 0.087629 0.239519 2.462132 14.797006 2.450691 2.377803 -0.926594 1.032534 0.000000 0.000000 0.000000 
-2694.979736 814.866760 1137.845947 -6.687464 2.679754 0.364870 -1.330241 14.391128 1.166618 -2.862803 -2.528051 -0.139965 -2.920351 2.390815 0.277576 -1.716040 3.016919 5.747761 0.000000 0.000000 0.000000 -5.115259 -34.459055 0.252592 5.625645 -13.295771 6.335163 14.854045 -69.268755 5.272535 0.000000 0.000000 0.000000 2.115248 -22.265968 6.729919 0.929281 -15.298655 -3.831562 -13.123814 -81.615439 -8.830784 0.000000 0.000000 0.000000 -2.178020 -17.269977 -3.182679 -3.304798 0.152234 -1.531443 -3.492495 2.220581 -1.375217 0.000000 0.000000 0.000000 2.108518 1.003736 0.160084 2.229415 14.317640 2.437207 2.197224 -0.814568 0.951219 0.000000 0.000000 0.000000 
-2684.706787 808.393677 1135.154053 -6.157877 2.322374 0.862198 -1.409704 14.554176 0.892098 -2.866283 -2.567220 -0.056892 -2.925527 2.412218 0.244888 -1.676580 3.080364 5.588841 0.000000 0.000000 0.000000 -5.110583 -34.204271 0.172817 5.391398 -13.232614 6.174237 14.794655 -69.609616 5.877831 0.000000 0.000000 0.000000 2.154313 -22.131126 6.462578 0.800572 -15.187626 -3.790117 -13.220626 -81.763938 -8.560897 0.000000 0.000000 0.000000 -1.154798 -17.086979 -3.650997 -2.163950 -0.191332 -1.484460 -2.384454 2.398351 -0.878845 0.000000 0.000000 0.000000 1.941974 2.086536 -0.019095 2.008564 14.148905 2.514959 2.008892 -0.939235 0.860167 0.000000 0.000000 0.000000 
-2674.031250 801.737183 1131.510986 -5.812881 1.790936 1.364146 -1.467415 14.745388 0.652881 -2.781354 -2.571323 -0.002597 -2.828018 2.421116 0.210893 -1.624900 3.154097 5.395828 0.000000 0.000000 0.000000 -5.015373 -34.084739 0.034104 5.176784 -13.087261 5.984141 14.687298 -70.046325 6.608706 0.000000 0.000000 0.000000 2.232563 -22.130308 6.192735 0.774734 -15.130890 -3.669415 -13.213015 -81.917104 -8.625408 0.000000 0.000000 0.000000 0.089111 -17.035328 -4.237378 -0.961200 1.114482 -0.983987 -1.099636 2.590624 -0.309256 0.000000 0.000000 0.000000 1.810900 3.309589 -0.239347 1.830889 14.219351 2.667546 1.847719 -1.322411 0.774554 0.000000 0.000000 0.000000 
-2663.279297 794.587341 1127.537964 -5.519953 1.221629 1.802769 -1.498955 14.921722 0.506574 -2.638845 -2.574094 0.032032 -2.665911 2.429196 0.188437 -1.571619 3.195368 5.200228 0.000000 0.000000 0.000000 -4.972446 -34.052633 0.001912 4.930558 -12.895381 5.725064 14.560423 -70.637679 7.654107 0.000000 0.000000 0.000000 2.309400 -22.162757 5.920198 0.811604 -15.074791 -3.404488 -13.138479 -82.116539 -8.707671 0.000000 0.000000 0.000000 1.037725 -17.014566 -4.636427 -0.124899 2.854598 -0.376700 -0.179820 3.058539 0.122622 0.000000 0.000000 0.000000 1.632746 4.307945 -0.309796 1.642565 14.808102 2.751815 1.645086 -1.805980 0.668012 0.000000 0.000000 0.000000 
-2652.530518 786.528442 1123.371948 -5.194338 0.697605 2.109791 -1.507725 15.021756 0.527394 -2.438858 -2.609846 0.027895 -2.439146 2.459923 0.185853 -1.522961 3.189067 5.022196 0.000000 0.000000 0.000000 -5.101748 -34.099810 0.238863 4.575465 -12.676816 5.325745 14.406592 -71.410797 9.281081 0.000000 0.000000 0.000000 2.355186 -22.199599 5.612766 0.918247 -14.993228 -2.864999 -12.997139 -82.352492 -8.672322 0.000000 0.000000 0.000000 1.228450 -16.946744 -4.521016 -0.082460 4.300543 -0.154918 -0.127620 4.155991 0.218844 0.000000 0.000000 0.000000 1.350161 4.831805 -0.048983 1.404919 16.178152 2.640164 1.335270 -2.402864 0.512157 0.000000 0.000000 0.000000 
